# xmcd CD database file
#
# Track frame offsets:
#	150
#	21922
#	53575
#	86900
#	131542
#	170392
#	216682
#
# Disc length: 3526 seconds
#
# Revision: 0
# Processed by: cddbd v1.5PL3 Copyright (c) Steve Scherf et al.
# Submitted via: CDex 1.51
#
DISCID=610dc407
DTITLE=David Kikoski - Comfortable Strange
DYEAR=2001
DGENRE=Jazz
TTITLE0=Muphkin Man
TTITLE1=Spacing
TTITLE2=Pools Of Amber
TTITLE3=B flat Tune
TTITLE4=Coasting
TTITLE5=Presage
TTITLE6=Blutain
EXTD=YEAR: 2001
EXTT0=
EXTT1=
EXTT2=
EXTT3=
EXTT4=
EXTT5=
EXTT6=
PLAYORDER=
